<?xml version="1.0" encoding="iso-8859-1"?>
<!-- Generator: Adobe Illustrator 19.0.0, SVG Export Plug-In . SVG Version: 6.00 Build 0)  -->
<svg version="1.1" id="Capa_1" xmlns="http://www.w3.org/2000/svg" xmlns:xlink="http://www.w3.org/1999/xlink" x="0px" y="0px"
	 viewBox="0 0 511.999 511.999" style="enable-background:new 0 0 511.999 511.999;" xml:space="preserve">
<g>
	<path style="fill:black;" d="M98.402,497.475c2.75,9.897,16.474,10.148,20.008,0.502c1.344-3.669,3.827-6.547,8.314-6.547
		c12.372,0,26.646-3.807,26.646-14.274c0-10.468-19.508-18.557-27.598-10.468s-27.122,0.475-28.55,15.226
		C96.717,487.136,97.047,492.598,98.402,497.475z"/>
	<path style="fill:black;" d="M343.169,169.607c0,0,16.104,72.852-19.939,108.895c-21.776,21.776-47.471,28.996-64.4,31.3
		c-12.247,1.667-23.14,8.63-29.585,19.176l-12.229,20.013c-6.966,11.399-19.958,17.748-33.208,16.054
		c-10.682-1.366-23.616-4.37-35.393-10.775c-11.189-6.085-24.784-5.7-35.705,0.853l-41.615,24.969
		c-7.484,4.49-8.755,14.819-2.584,20.99l0,0c3.708,3.708,9.23,4.92,14.146,3.093c14.026-5.214,43.74-14.392,64.194-7.574
		c0,0-34.509,22.24-15.337,41.411c9.692,9.692,20.954,0.176,29.72-11.605c7.185-9.656,21.297-10.21,29.311-1.23
		c5.592,6.266,12.61,11.302,20.722,11.302c21.473,0,27.607-30.675,16.871-41.411c0,0,111.963,13.804,133.436-26.073
		c21.473-39.877-3.068-56.748,15.337-98.16s37.577-94.325,18.405-113.497C376.144,138.165,343.169,140.465,343.169,169.607z"/>
	<path style="fill:black;" d="M460.919,115.601c9.056-9.476,24.12-16.669,40.745-15.916c7.962,0.36,13.025-8.496,8.82-15.268
		c-6.18-9.952-15.989-21.687-30.814-29.841c-18.824-10.353-19.166-29.369-26.189-44.644c-6.545-14.235-27.523-11.408-30.086,4.048
		c-4.037,24.341-14.31,58.386-40.351,65.137c-41.411,10.736-23.007,44.478-23.007,44.478s15.337-38.344,53.681-13.804l14.698,9.406
		C438.745,125.807,452.448,124.466,460.919,115.601z"/>
	<path style="fill:black;" d="M74.764,445.68c-12.638-18.977-42.944-46.012-67.485-21.473
		c-24.539,24.539,21.473,26.073,13.804,49.08c-7.669,23.007,17.638,48.313,32.209,33.742
		C67.863,492.458,85.816,462.276,74.764,445.68z"/>
</g>
</svg>
