<svg xmlns="http://www.w3.org/2000/svg" width="150" height="30" viewBox="0 0 150 30">
  <g id="Group_4" data-name="Group 4" transform="translate(-465 -343)">
    <text id="CORONAの今" transform="translate(465 367)" fill="#6171e4" font-size="22" font-family="NotoSans-Bold, Noto Sans" font-weight="700"><tspan x="0" y="0">CORONA</tspan><tspan y="0" fill="#707070" font-family="HiraginoSans-W6, Hiragino Sans" font-weight="400">の今</tspan></text>
    <g id="virus" transform="translate(605 358.947)">
      <g id="XMLID_107_" transform="translate(0 4.053)">
        <g id="Group_1" data-name="Group 1" transform="translate(0)">
          <path id="Path_1" data-name="Path 1" d="M10,8.628a.871.871,0,0,1-.742.953.79.79,0,0,1-.794-.474l-.405.036-.306.15a.235.235,0,0,0-.128.18,2.781,2.781,0,0,1-.154.606.237.237,0,0,0,.013.2l.109.2.3.207a.536.536,0,0,1,.5.057.56.56,0,0,1,.129.8.541.541,0,0,1-.709.14.553.553,0,0,1-.262-.4l-.336-.229L7,11.021a.241.241,0,0,0-.2.068,2.737,2.737,0,0,1-.6.44.245.245,0,0,0-.126.2l-.027.435.133.536a.686.686,0,1,1-.825.878.7.7,0,0,1,.169-.706L5.4,12.334,5.191,12a.3.3,0,0,0-.258-.144h0A2.689,2.689,0,0,1,4.4,11.8a.3.3,0,0,0-.278.089l-.272.292-.305.644a.562.562,0,0,1,0,.485.541.541,0,0,1-.759.242.561.561,0,0,1-.236-.692.546.546,0,0,1,.381-.33l.307-.648.06-.435a.233.233,0,0,0-.081-.212,2.776,2.776,0,0,1-.617-.719.226.226,0,0,0-.192-.11l-.427,0-.467.149A.772.772,0,0,1,.99,11.2a.759.759,0,0,1-.953-.5A.782.782,0,0,1,.522,9.73a.752.752,0,0,1,.765.175l.5-.159.362-.263a.191.191,0,0,0,.077-.171q-.009-.111-.009-.224A2.787,2.787,0,0,1,2.46,7.938a.192.192,0,0,0,0-.161l-.107-.223L2.06,7.33a.536.536,0,0,1-.495-.085.56.56,0,0,1-.085-.8.541.541,0,0,1,.716-.1.554.554,0,0,1,.24.414L2.759,7l.325.059A2.719,2.719,0,0,1,3.9,6.531l.076-.472-.1-.487A.788.788,0,0,1,3.3,4.979a.775.775,0,0,1,.632-.911.807.807,0,0,1,.95.606.759.759,0,0,1-.335.79l.091.46.224.363a.08.08,0,0,0,.068.038h0a2.666,2.666,0,0,1,1.4.4.078.078,0,0,0,.074,0l.35-.165.409-.45A.559.559,0,0,1,7.3,5.649.539.539,0,0,1,8.1,5.643a.564.564,0,0,1,.017.745.54.54,0,0,1-.453.19l-.409.45-.133.363a.081.081,0,0,0,.01.075,2.767,2.767,0,0,1,.378.745.234.234,0,0,0,.156.153L8,8.457l.432-.039a.838.838,0,0,1,.695-.578A.818.818,0,0,1,10,8.628Z" transform="translate(0 -4.053)" fill="#eb5569"/>
        </g>
      </g>
      <g id="XMLID_8_" transform="translate(2.918 7.042)">
        <g id="Group_2" data-name="Group 2">
          <ellipse id="Ellipse_1" data-name="Ellipse 1" cx="2.013" cy="2.047" rx="2.013" ry="2.047" fill="#f58a97"/>
        </g>
      </g>
      <path id="Path_2" data-name="Path 2" d="M142.029,148.51a2.037,2.037,0,0,1,1.706-2.023,1.994,1.994,0,0,0-.307-.024,2.047,2.047,0,0,0,0,4.094,2,2,0,0,0,.307-.024,2.037,2.037,0,0,1-1.706-2.023Z" transform="translate(-138.498 -139.421)" fill="#f07281"/>
      <g id="Group_3" data-name="Group 3" transform="translate(0.972 4.202)">
        <ellipse id="Ellipse_2" data-name="Ellipse 2" cx="0.573" cy="0.583" rx="0.573" ry="0.583" fill="#eb5569"/>
        <ellipse id="Ellipse_3" data-name="Ellipse 3" cx="0.379" cy="0.385" rx="0.379" ry="0.385" transform="translate(0.038 7.881)" fill="#eb5569"/>
        <ellipse id="Ellipse_4" data-name="Ellipse 4" cx="0.558" cy="0.567" rx="0.558" ry="0.567" transform="translate(6.809 8.331)" fill="#eb5569"/>
        <ellipse id="Ellipse_5" data-name="Ellipse 5" cx="0.52" cy="0.529" rx="0.52" ry="0.529" transform="translate(2.822 3.794)" fill="#eb5569"/>
        <ellipse id="Ellipse_6" data-name="Ellipse 6" cx="0.354" cy="0.36" rx="0.354" ry="0.36" transform="translate(3.405 5.605)" fill="#eb5569"/>
        <ellipse id="Ellipse_7" data-name="Ellipse 7" cx="0.297" cy="0.302" rx="0.297" ry="0.302" transform="translate(4.573 4.585)" fill="#eb5569"/>
      </g>
    </g>
  </g>
</svg>
